<?xml version="1.0" standalone="no"?>
<!DOCTYPE svg PUBLIC "-//W3C//DTD SVG 20010904//EN"
 "http://www.w3.org/TR/2001/REC-SVG-20010904/DTD/svg10.dtd">
<svg version="1.0" xmlns="http://www.w3.org/2000/svg"
 width="700.000000pt" height="700.000000pt" viewBox="0 0 700.000000 700.000000"
 preserveAspectRatio="xMidYMid meet">
<metadata>
Created by potrace 1.14, written by Peter Selinger 2001-2017
</metadata>
<g transform="translate(0.000000,700.000000) scale(0.100000,-0.100000)"
fill="#000000" stroke="none">
<path d="M1654 5095 c-11 -9 -101 -238 -334 -855 -27 -69 -100 -262 -164 -430
-64 -168 -137 -359 -162 -425 -26 -66 -52 -133 -59 -150 -7 -16 -24 -61 -38
-100 -14 -38 -64 -171 -112 -295 -47 -124 -106 -277 -130 -340 -23 -63 -102
-268 -173 -455 -72 -187 -132 -347 -134 -355 -3 -12 30 -15 235 -15 131 0 241
2 245 5 4 3 18 37 31 75 25 74 132 375 181 510 16 44 45 127 65 185 l37 105
769 0 c496 0 771 -4 777 -10 5 -6 26 -59 46 -120 21 -60 41 -119 46 -130 11
-26 177 -494 198 -560 9 -27 18 -52 20 -55 4 -5 482 -8 482 -2 0 2 -133 353
-296 780 -163 427 -306 804 -319 837 -26 71 -157 414 -190 500 -29 75 -380
995 -446 1169 -27 71 -51 132 -55 135 -10 10 -506 6 -520 -4z m447 -960 c4
-11 94 -254 199 -540 106 -286 196 -529 201 -540 16 -36 39 -108 36 -112 -2
-2 -285 -2 -628 -1 l-625 3 103 280 c56 154 111 303 122 330 11 28 40 109 66
180 26 72 51 139 55 150 5 11 27 72 50 135 23 63 45 124 50 135 5 11 43 115
86 230 42 116 81 221 86 235 8 22 22 -7 100 -220 49 -135 94 -254 99 -265z"/>
<path d="M3997 5102 c-16 -3 -17 -91 -15 -1715 l3 -1712 1062 0 c721 -1 1064
3 1066 10 2 5 3 93 3 195 l-1 185 -832 0 c-731 0 -832 2 -835 15 -2 8 -4 691
-3 1518 0 826 -2 1503 -5 1503 -13 3 -427 4 -443 1z"/>
</g>
</svg>
